<svg width="260" height="260" viewBox="0 0 260 260" fill="none" xmlns="http://www.w3.org/2000/svg">
<path d="M183.865 138.108C187.919 142.613 190.892 147.568 192.784 152.973C194.766 158.288 195.757 164.505 195.757 171.622C195.757 188.559 189.496 202.523 176.973 213.514C164.45 224.505 148.91 230 130.351 230C121.793 230 113.234 228.694 104.676 226.081C96.1171 223.378 88.7297 220.135 82.5135 216.351L76.7027 226.216H65.8919L64 160.541H74.9459C77.1982 168.649 79.8108 175.991 82.7838 182.568C85.8468 189.054 89.8559 195.135 94.8108 200.811C99.4955 206.126 104.946 210.36 111.162 213.514C117.468 216.667 124.766 218.243 133.054 218.243C139.27 218.243 144.676 217.432 149.27 215.811C153.955 214.189 157.739 211.892 160.622 208.919C163.505 205.946 165.622 202.477 166.973 198.514C168.414 194.459 169.135 189.82 169.135 184.595C169.135 176.937 166.973 169.82 162.649 163.243C158.324 156.577 151.883 151.532 143.324 148.108C137.468 145.766 130.757 143.198 123.189 140.405C115.622 137.523 109.09 134.82 103.595 132.297C92.7838 127.432 84.3604 121.081 78.3243 113.243C72.3784 105.315 69.4054 95 69.4054 82.2973C69.4054 75 70.8919 68.1982 73.8649 61.8919C76.8378 55.5856 81.0721 49.955 86.5676 45C91.7928 40.3153 97.964 36.6667 105.081 34.0541C112.198 31.3514 119.631 30 127.378 30C136.207 30 144.09 31.3514 151.027 34.0541C158.054 36.7568 164.45 39.9099 170.216 43.5135L175.757 34.3243H186.568L187.649 97.973H176.703C174.721 90.6757 172.468 83.6937 169.946 77.027C167.514 70.3604 164.315 64.3243 160.351 58.9189C156.477 53.6937 151.748 49.5495 146.162 46.4865C140.577 43.3333 133.73 41.7568 125.622 41.7568C117.063 41.7568 109.766 44.5045 103.73 50C97.6937 55.4955 94.6757 62.2072 94.6757 70.1351C94.6757 78.4234 96.6126 85.3153 100.486 90.8108C104.36 96.2162 109.991 100.676 117.378 104.189C123.955 107.342 130.396 110.09 136.703 112.432C143.099 114.685 149.27 117.117 155.216 119.73C160.622 122.072 165.802 124.73 170.757 127.703C175.802 130.676 180.171 134.144 183.865 138.108Z" fill="#808080"/>
</svg>
