<?xml version="1.0" standalone="no"?>
<!DOCTYPE svg PUBLIC "-//W3C//DTD SVG 20010904//EN"
 "http://www.w3.org/TR/2001/REC-SVG-20010904/DTD/svg10.dtd">
<svg version="1.0" xmlns="http://www.w3.org/2000/svg"
 width="260.000000pt" height="260.000000pt" viewBox="0 0 260.000000 260.000000"
 preserveAspectRatio="xMidYMid meet">
<metadata>
Created by potrace 1.14, written by Peter Selinger 2001-2017
</metadata>
<g transform="translate(0.000000,260.000000) scale(0.100000,-0.100000)"
fill="#000000" stroke="none">
<path d="M1165 2293 c-224 -50 -383 -180 -445 -364 -24 -68 -33 -187 -19 -248
4 -20 10 -48 13 -64 9 -51 53 -132 100 -184 88 -98 180 -146 564 -294 127 -49
190 -91 241 -163 52 -73 70 -135 67 -241 -2 -76 -6 -99 -30 -148 -50 -101
-131 -150 -273 -165 -278 -30 -503 155 -612 504 l-23 70 -54 0 -54 -1 5 -210
c7 -278 13 -437 18 -441 4 -4 60 -7 89 -5 9 0 29 21 44 46 14 25 28 45 31 45
2 0 37 -15 76 -34 219 -105 485 -124 677 -47 171 69 303 206 352 366 30 98 30
254 -1 343 -61 177 -175 264 -526 403 -226 89 -299 127 -359 187 -80 79 -114
191 -91 304 28 142 145 226 316 226 137 0 245 -55 332 -170 55 -73 74 -115
123 -258 l43 -125 53 -3 54 -3 -3 243 c-2 134 -5 277 -6 318 l-2 75 -57 1
c-56 1 -56 1 -74 -38 -10 -21 -21 -41 -25 -44 -5 -2 -43 13 -87 35 -132 66
-193 83 -322 86 -63 1 -124 1 -135 -2z"/>
</g>
</svg>
